<svg width="512" height="512" viewBox="-180 -120 1660 1660" xmlns="http://www.w3.org/2000/svg">
  <rect x="-180" y="-120" width="1660" height="1660" rx="300" fill="#24281D"/>
  <g fill="#FDFFF7">
    <path d="M766.27,1392.2c-7.25,0-14.4-0.11-21.54-0.33c-55.32-1.5-110.26-8.99-163.16-22.21c-168.02-41.7-318.23-146.26-422.88-294.4C47.2,917.45-4.07,725.16,10.44,519.21l5.3-75.25l70.38,27.17c276.16,106.58,498.2,312.77,625.21,580.59l5.38,11.56c32.2,69.66,57.26,142.41,74.76,216.97c66.06-2.5,130.77-14.88,192.7-36.86c68.46-24.16,132.18-59.62,189.48-105.43c155.7-124.56,245.01-310.28,245.01-509.52c0-101.52-23.57-201.25-68.53-291.39c-142.12,82.27-268.39,187.3-375.94,312.76l-84.64-72.55c128.61-150.05,282.13-272.94,456.28-365.27l46.49-24.64l27.29,44.99c72.32,119.25,110.54,256.23,110.54,396.1c0,233.29-104.56,450.74-286.87,596.59c-67.09,53.63-141.74,95.16-221.91,123.46C939.67,1377.49,853.81,1392.2,766.27,1392.2z M119.76,606.9c3.63,149.51,47.93,287.91,129.98,404.04c89.21,126.29,216.63,215.26,358.77,250.54c21.82,5.45,44.05,9.76,66.54,12.91c-16.1-59.99-37.66-118.52-64.42-174.75l-4.79-10.07C502.16,876.7,331.6,707.88,119.76,606.9z"/>
    <path d="M728.15,865.69c82.59,123.39,150.49,255.73,202.42,394.05c18.06-4.7,35.96-10.09,53.6-16.35c17.49-6.17,34.67-13.11,51.52-20.74c-55.04-147.11-127.11-287.83-214.87-418.96c-161.23-241.11-376.5-449.53-622.54-602.74l-58.93,94.64C372.04,440.48,575.64,637.61,728.15,865.69z"/>
    <path d="M886.27,645.59c111.39,158.42,197.82,331.48,257.22,514.94c10.21-7.25,20.31-14.7,30.16-22.57c21.72-17.38,42.01-36.06,61.08-55.69c-62.07-177.81-148.37-345.93-257.25-500.78C815.83,351.34,612.51,159.92,373.17,12.5l-58.46,94.92C541.07,246.85,733.36,427.9,886.27,645.59z"/>
  </g>
</svg>
