<?xml version="1.0" encoding="utf-8"?>
<!-- Generator: Adobe Illustrator 27.9.1, SVG Export Plug-In . SVG Version: 6.00 Build 0)  -->
<svg version="1.1" id="Camada_1" xmlns="http://www.w3.org/2000/svg" xmlns:xlink="http://www.w3.org/1999/xlink" x="0px" y="0px"
	 viewBox="0 0 1920 657.92" style="enable-background:new 0 0 1920 657.92;" xml:space="preserve">
<style type="text/css">
	.st0{fill:#181917;}
	.st1{fill:#858E5E;}
	.st2{fill:#FDFFF7;}
	.st3{fill:#24281D;}
</style>
<g>
	<path class="st1" d="M1477.9,569.14h37.17c18.92,0,28.42,9.72,28.42,23.11c0,15.33-10.62,24.03-28.2,24.03h-24.55v30.14h-12.83
		V569.14z M1490.73,605.8h23.02c9.98,0,16.83-3.03,16.83-13.35c0-8.17-5.4-12.89-16.83-12.89h-23.02V605.8z"/>
	<path class="st1" d="M1563.06,564.66h12.15v12.88h-12.15V564.66z M1563.06,590.98h12.15v55.44h-12.15V590.98z"/>
	<path class="st1" d="M1599.31,646.41v-81.75h12.15v81.75H1599.31z"/>
	<path class="st1" d="M1685.25,632.25c0,5.84,0.33,12.9,0.5,14.16h-11.53c-0.44-1.85-0.6-5.9-0.65-7.66
		c-2.93,5.52-9.23,9.19-20.66,9.19c-15.55,0-21.39-9.43-21.39-17.88c0-14.28,12.85-18.24,28.8-18.24c6.12,0,11.15,0,13.05,0v-2.66
		c0-5.68-2.45-10.85-13.36-10.85c-9.88,0-12.18,4.23-13.19,8.85h-12.15c0.61-7.22,5.52-17.72,25.25-17.72
		c21.11,0,25.34,10.22,25.34,19.4V632.25z M1673.36,620.12c-1.62-0.05-5.36-0.05-12.78-0.05c-11.79,0-17.16,2.71-17.16,9.37
		c0,5.05,3.8,9.27,12.3,9.27c13.48,0,17.65-7.58,17.65-16.57V620.12z"/>
	<path class="st1" d="M1700.57,590.98h10.75V573.5h12.2v17.48h14.06v9.31h-14.06v28.65c0,5.96,1.47,8.62,7.34,8.62
		c1.59,0,3.7-0.06,5.28-0.45v8.73c-2.63,0.87-5.8,1.07-9.2,1.07c-12.01,0-15.62-5.32-15.62-16.21v-30.41h-10.75V590.98z"/>
	<path class="st1" d="M1762.91,621.56c0.55,9.68,7.16,16.86,17.69,16.86c8.16,0,12.54-3.17,15.29-8.07h12.15
		c-3.07,8.63-11.03,17.59-27.9,17.59c-20.55,0-29.38-14.65-29.38-29.1c0-16.47,10.99-29.39,29.15-29.39
		c21.17,0,28.9,15.28,28.9,29.02c0,1.05,0,1.84-0.05,3.09H1762.91z M1796.26,613.35c-0.45-6.01-3.65-14.77-16.42-14.77
		c-10.84,0-15.86,6.59-16.72,14.77H1796.26z"/>
	<path class="st1" d="M1836.32,629.57c1.84,5.93,7.01,9.45,16.41,9.45c9.89,0,13.24-3.38,13.24-7.76c0-4.26-2.7-7-16.05-8.65
		c-19.89-2.57-23.37-9.61-23.37-16.48c0-7.46,5.88-16.69,23.98-16.69c19.28,0,25.04,9.74,25.67,16.71h-12.12
		c-0.82-3.16-3.02-7.99-14.15-7.99c-9.38,0-11.32,3.96-11.32,6.84c0,3.69,2.41,5.9,14.52,7.54c21.24,2.94,24.91,9.65,24.91,17.75
		c0,10-7.61,17.65-26.08,17.65c-15.91,0-25.94-6.73-27.8-18.37H1836.32z"/>
</g>
<g>
	<g>
		<g>
			<path class="st1" d="M319.22,565.58c-2.92,0-5.8-0.04-8.67-0.13c-22.28-0.61-44.4-3.62-65.71-8.94
				c-67.66-16.79-128.15-58.9-170.29-118.55c-44.9-63.55-65.54-140.98-59.7-223.92l2.13-30.3l28.34,10.94
				c111.21,42.92,200.62,125.95,251.77,233.8l2.17,4.66c12.97,28.05,23.06,57.35,30.11,87.37c26.6-1.01,52.66-5.99,77.6-14.84
				c27.57-9.73,53.23-24.01,76.3-42.46c62.7-50.16,98.66-124.95,98.66-205.18c0-40.88-9.49-81.04-27.59-117.34
				c-57.23,33.13-108.08,75.42-151.39,125.95l-34.09-29.21c51.79-60.42,113.61-109.91,183.74-147.09l18.72-9.92l10.99,18.12
				c29.12,48.02,44.51,103.18,44.51,159.51c0,93.95-42.1,181.51-115.52,240.24c-27.01,21.6-57.08,38.32-89.36,49.72
				C389.05,559.65,354.47,565.58,319.22,565.58z M58.88,249.34c1.46,60.21,19.3,115.94,52.34,162.71
				c35.92,50.86,87.23,86.68,144.47,100.89c8.79,2.2,17.74,3.93,26.8,5.2c-6.48-24.16-15.17-47.73-25.94-70.37l-1.93-4.05
				C212.87,357.99,144.18,290.01,58.88,249.34z"/>
		</g>
		<g>
			<path class="st1" d="M604.38,81.9c0-13.68,10.86-23.03,22.62-23.03c11.76,0,22.34,9.42,22.34,23.03
				c0,13.13-9.9,23.03-22.48,23.03S604.38,95.03,604.38,81.9z M644.11,82.04c0-10.17-7.15-18.63-17.39-18.63
				c-10.04,0-17.12,8.52-17.12,18.56c0,10.25,7.43,18.29,17.25,18.29C636.69,100.25,644.11,92.21,644.11,82.04z M627.68,70.42
				c5.64,0,8.94,2.27,8.94,6.94c0,3.1-1.44,5.77-3.99,6.67l4.74,8.93h-5.71l-4.12-8.04h-3.99v8.04h-5.43V70.42H627.68z
				 M631.19,77.64c0-1.93-1.17-2.54-3.16-2.54h-4.47v5.09h4.54C630.02,80.18,631.19,79.56,631.19,77.64z"/>
		</g>
	</g>
	<path class="st1" d="M303.87,353.56c33.26,49.69,60.6,102.98,81.51,158.68c7.27-1.89,14.48-4.06,21.58-6.58
		c7.04-2.49,13.96-5.28,20.75-8.35c-22.16-59.24-51.19-115.91-86.53-168.71C276.26,231.49,189.57,147.57,90.49,85.87l-23.73,38.11
		C160.47,182.33,242.46,261.71,303.87,353.56z"/>
	<path class="st1" d="M367.55,264.92c44.86,63.79,79.66,133.49,103.58,207.36c4.11-2.92,8.18-5.92,12.14-9.09
		c8.75-7,16.92-14.52,24.6-22.43c-25-71.6-59.75-139.3-103.59-201.66C339.18,146.43,257.3,69.35,160.92,9.98l-23.54,38.22
		C228.53,104.35,305.97,177.26,367.55,264.92z"/>
</g>
<g>
	<path class="st3" d="M835.52,496.08v-229.1h-52.74v-48.77h52.74v-28.92c0-58.98,36.86-103.21,106.61-103.21
		c18.71,0,36.29,3.4,50.47,10.21v53.31c-13.04-7.94-29.49-12.48-45.37-12.48c-34.59,0-55.57,15.31-55.57,52.17v28.92h97.54v48.77
		h-97.54v229.1H835.52z"/>
	<path class="st3" d="M1014.7,126.34c0-20.42,16.44-37.43,36.86-37.43c20.42,0,36.29,17.01,36.29,37.43
		c0,20.41-15.88,36.86-36.29,36.86C1031.15,163.2,1014.7,146.76,1014.7,126.34z M1079.91,218.21v277.87h-56.14V218.21H1079.91z"/>
	<path class="st3" d="M1130.95,356.58c0-79.96,65.22-145.17,148.58-145.17c83.93,0,147.44,65.78,147.44,145.17
		c0,80.53-64.08,146.31-147.44,146.31C1195.59,502.88,1130.95,437.1,1130.95,356.58z M1370.82,357.15c0-51.04-39.7-93-91.3-93
		c-52.17,0-92.44,41.97-92.44,93c0,50.47,40.26,92.44,92.44,92.44C1331.13,449.58,1370.82,407.62,1370.82,357.15z"/>
	<path class="st3" d="M1467.21,496.08V330.49c0-67.48,38.56-117.95,111.15-117.95c17.58,0,35.72,3.4,49.9,10.21v55.57
		c-13.61-7.94-29.49-11.91-44.8-11.91c-37.43,0-60.11,25.52-60.11,66.35v163.32H1467.21z"/>
	<path class="st3" d="M1629.38,355.44c0-79.96,57.27-145.17,140.64-145.17c83.93,0,136.1,60.68,136.1,138.37v22.69h-222.3
		c6.24,47.63,42.53,81.09,92.44,81.09c34.02,0,64.65-14.74,81.09-45.37l43.1,22.11c-24.39,47.64-69.19,73.16-123.63,73.16
		C1692.33,502.32,1629.38,441.07,1629.38,355.44z M1849.98,335.03c-2.27-44.23-34.59-74.29-80.52-74.29
		c-47.07,0-77.69,32.89-83.36,74.29H1849.98z"/>
</g>
</svg>
