<?xml version="1.0" encoding="utf-8"?>
<!-- Generator: Adobe Illustrator 27.9.1, SVG Export Plug-In . SVG Version: 6.00 Build 0)  -->
<svg version="1.1" id="Camada_1" xmlns="http://www.w3.org/2000/svg" xmlns:xlink="http://www.w3.org/1999/xlink" x="0px" y="0px"
	 viewBox="0 0 1594.07 1404.71" style="enable-background:new 0 0 1594.07 1404.71;" xml:space="preserve">
<style type="text/css">
	.st0{fill:#181917;}
	.st1{fill:#858E5E;}
	.st2{fill:#FDFFF7;}
	.st3{fill:#24281D;}
</style>
<g>
	<g>
		<g>
			<path class="st1" d="M766.27,1392.2c-7.25,0-14.4-0.11-21.54-0.33c-55.32-1.5-110.26-8.99-163.16-22.21
				c-168.02-41.7-318.23-146.26-422.88-294.4C47.2,917.45-4.07,725.16,10.44,519.21l5.3-75.25l70.38,27.17
				c276.16,106.58,498.2,312.77,625.21,580.59l5.38,11.56c32.2,69.66,57.26,142.41,74.76,216.97c66.06-2.5,130.77-14.88,192.7-36.86
				c68.46-24.16,132.18-59.62,189.48-105.43c155.7-124.56,245.01-310.28,245.01-509.52c0-101.52-23.57-201.25-68.53-291.39
				c-142.12,82.27-268.39,187.3-375.94,312.76l-84.64-72.55c128.61-150.05,282.13-272.94,456.28-365.27l46.49-24.64l27.29,44.99
				c72.32,119.25,110.54,256.23,110.54,396.1c0,233.29-104.56,450.74-286.87,596.59c-67.09,53.63-141.74,95.16-221.91,123.46
				C939.67,1377.49,853.81,1392.2,766.27,1392.2z M119.76,606.9c3.63,149.51,47.93,287.91,129.98,404.04
				c89.21,126.29,216.63,215.26,358.77,250.54c21.82,5.45,44.05,9.76,66.54,12.91c-16.1-59.99-37.66-118.52-64.42-174.75
				l-4.79-10.07C502.16,876.7,331.6,707.88,119.76,606.9z"/>
		</g>
		<g>
			<path class="st1" d="M1474.4,191.08c0-33.97,26.97-57.18,56.16-57.18c29.19,0,55.48,23.39,55.48,57.18
				c0,32.61-24.58,57.18-55.82,57.18C1498.98,248.27,1474.4,223.69,1474.4,191.08z M1573.07,191.43c0-25.27-17.75-46.26-43.19-46.26
				c-24.92,0-42.5,21.16-42.5,46.08c0,25.44,18.44,45.41,42.85,45.41C1554.63,236.66,1573.07,216.69,1573.07,191.43z
				 M1532.27,162.58c14,0,22.19,5.63,22.19,17.23c0,7.69-3.59,14.34-9.9,16.56l11.78,22.19h-14.17l-10.24-19.97h-9.9v19.97h-13.48
				v-55.98H1532.27z M1540.98,180.5c0-4.78-2.9-6.32-7.85-6.32h-11.1v12.63h11.26C1538.08,186.81,1540.98,185.28,1540.98,180.5z"/>
		</g>
	</g>
	<path class="st1" d="M728.15,865.69c82.59,123.39,150.49,255.73,202.42,394.05c18.06-4.7,35.96-10.09,53.6-16.35
		c17.49-6.17,34.67-13.11,51.52-20.74c-55.04-147.11-127.11-287.83-214.87-418.96c-161.23-241.11-376.5-449.53-622.54-602.74
		l-58.93,94.64C372.04,440.48,575.64,637.61,728.15,865.69z"/>
	<path class="st1" d="M886.27,645.59c111.39,158.42,197.82,331.48,257.22,514.94c10.21-7.25,20.31-14.7,30.16-22.57
		c21.72-17.38,42.01-36.06,61.08-55.69c-62.07-177.81-148.37-345.93-257.25-500.78C815.83,351.34,612.51,159.92,373.17,12.5
		l-58.46,94.92C541.07,246.85,733.36,427.9,886.27,645.59z"/>
</g>
</svg>
