<?xml version="1.0" encoding="utf-8"?>
<!-- Generator: Adobe Illustrator 27.9.1, SVG Export Plug-In . SVG Version: 6.00 Build 0)  -->
<svg version="1.1" id="Camada_1" xmlns="http://www.w3.org/2000/svg" xmlns:xlink="http://www.w3.org/1999/xlink" x="0px" y="0px"
	 viewBox="0 0 1920 592.75" style="enable-background:new 0 0 1920 592.75;" xml:space="preserve">
<style type="text/css">
	.st0{fill:#181917;}
	.st1{fill:#858E5E;}
	.st2{fill:#FDFFF7;}
	.st3{fill:#24281D;}
</style>
<g>
	<g>
		<g>
			<g>
				<path class="st1" d="M309.82,578.25c-2.96,0-5.88-0.04-8.8-0.13c-22.6-0.61-45.05-3.67-66.67-9.08
					C165.69,552,104.32,509.28,61.56,448.75C16,384.26-4.94,305.69,0.98,221.54l2.17-30.75l28.76,11.1
					c112.84,43.55,203.57,127.8,255.46,237.23l2.2,4.72c13.16,28.46,23.4,58.19,30.55,88.66c26.99-1.02,53.43-6.08,78.74-15.06
					c27.97-9.87,54.01-24.36,77.42-43.08c63.62-50.9,100.11-126.78,100.11-208.19c0-41.48-9.63-82.23-28-119.06
					c-58.07,33.61-109.66,76.53-153.61,127.79l-34.59-29.64c52.55-61.31,115.28-111.53,186.44-149.25l19-10.07l11.15,18.38
					c29.55,48.73,45.17,104.69,45.17,161.85c0,95.32-42.72,184.17-117.22,243.77c-27.41,21.92-57.92,38.88-90.67,50.45
					C380.67,572.24,345.59,578.25,309.82,578.25z M45.65,257.37c1.48,61.09,19.59,117.64,53.11,165.09
					c36.45,51.6,88.51,87.96,146.59,102.37c8.92,2.23,18,3.99,27.19,5.27c-6.58-24.51-15.39-48.43-26.32-71.4l-1.96-4.11
					C201.9,367.61,132.21,298.63,45.65,257.37z"/>
			</g>
			<g>
				<path class="st1" d="M599.16,87.47c0-13.88,11.02-23.37,22.95-23.37c11.93,0,22.67,9.56,22.67,23.37
					c0,13.32-10.04,23.37-22.81,23.37C609.21,110.83,599.16,100.79,599.16,87.47z M639.48,87.61c0-10.32-7.25-18.9-17.65-18.9
					c-10.18,0-17.37,8.65-17.37,18.83c0,10.4,7.53,18.56,17.51,18.56C631.95,106.09,639.48,97.93,639.48,87.61z M622.81,75.82
					c5.72,0,9.07,2.3,9.07,7.04c0,3.14-1.47,5.86-4.05,6.77l4.81,9.06h-5.79l-4.18-8.16h-4.05v8.16h-5.51V75.82H622.81z
					 M626.36,83.15c0-1.95-1.18-2.58-3.21-2.58h-4.53v5.16h4.6C625.18,85.72,626.36,85.1,626.36,83.15z"/>
			</g>
		</g>
		<path class="st1" d="M294.24,363.11c33.75,50.42,61.49,104.49,82.71,161.01c7.38-1.92,14.69-4.12,21.9-6.68
			c7.15-2.52,14.17-5.36,21.05-8.47c-22.49-60.11-51.94-117.61-87.8-171.19C266.23,239.26,178.27,154.1,77.73,91.5l-24.08,38.67
			C148.74,189.37,231.93,269.92,294.24,363.11z"/>
		<path class="st1" d="M358.85,273.18c45.51,64.73,80.83,135.44,105.1,210.41c4.17-2.96,8.3-6.01,12.32-9.22
			c8.88-7.1,17.16-14.73,24.96-22.76c-25.36-72.65-60.63-141.35-105.11-204.62C330.07,152.95,246.99,74.73,149.2,14.5l-23.89,38.78
			C217.8,110.25,296.37,184.23,358.85,273.18z"/>
	</g>
	<g>
		<path class="st0" d="M833.69,507.73V275.26h-53.51v-49.48h53.51v-29.35c0-59.84,37.4-104.72,108.18-104.72
			c18.99,0,36.83,3.45,51.21,10.36v54.09c-13.23-8.06-29.92-12.66-46.03-12.66c-35.1,0-56.39,15.54-56.39,52.94v29.35h98.97v49.48
			h-98.97v232.47H833.69z"/>
		<path class="st0" d="M1015.5,132.57c0-20.72,16.69-37.98,37.4-37.98s36.83,17.26,36.83,37.98c0,20.71-16.11,37.4-36.83,37.4
			S1015.5,153.28,1015.5,132.57z M1081.67,225.78v281.95h-56.96V225.78H1081.67z"/>
		<path class="st0" d="M1133.45,366.18c0-81.13,66.17-147.3,150.76-147.3c85.16,0,149.6,66.75,149.6,147.3
			c0,81.71-65.02,148.45-149.6,148.45C1199.05,514.63,1133.45,447.89,1133.45,366.18z M1376.85,366.76
			c0-51.79-40.28-94.37-92.64-94.37c-52.94,0-93.79,42.58-93.79,94.37c0,51.21,40.85,93.79,93.79,93.79
			C1336.57,460.55,1376.85,417.97,1376.85,366.76z"/>
		<path class="st0" d="M1474.65,507.73V339.71c0-68.47,39.13-119.68,112.78-119.68c17.84,0,36.25,3.45,50.64,10.36v56.39
			c-13.81-8.06-29.92-12.08-45.46-12.08c-37.98,0-60.99,25.89-60.99,67.32v165.72H1474.65z"/>
		<path class="st0" d="M1639.2,365.03c0-81.13,58.12-147.3,142.7-147.3c85.16,0,138.1,61.57,138.1,140.4v23.02h-225.56
			c6.33,48.33,43.16,82.28,93.79,82.28c34.52,0,65.59-14.96,82.28-46.03l43.73,22.44c-24.74,48.34-70.2,74.23-125.44,74.23
			C1703.07,514.06,1639.2,451.91,1639.2,365.03z M1863.03,344.32c-2.3-44.88-35.1-75.38-81.71-75.38
			c-47.76,0-78.83,33.37-84.58,75.38H1863.03z"/>
	</g>
</g>
</svg>
