<?xml version="1.0" encoding="utf-8"?><!DOCTYPE svg PUBLIC "-//W3C//DTD SVG 1.1//EN" "http://www.w3.org/Graphics/SVG/1.1/DTD/svg11.dtd"><svg xmlns="http://www.w3.org/2000/svg" viewBox="0 0 73 73" shape-rendering="crispEdges"><path fill="#ffffff" d="M0 0h73v73H0z"/><path stroke="#000000" d="M2 2.5h7m2 0h1m1 0h5m2 0h4m1 0h5m3 0h1m2 0h1m2 0h1m3 0h2m2 0h1m1 0h3m1 0h1m1 0h3m2 0h3m1 0h7M2 3.5h1m5 0h1m3 0h2m2 0h1m2 0h1m1 0h2m6 0h2m1 0h5m1 0h2m1 0h1m2 0h1m5 0h4m2 0h1m7 0h1m5 0h1M2 4.5h1m1 0h3m1 0h1m1 0h1m1 0h1m1 0h1m2 0h1m1 0h2m1 0h2m2 0h2m1 0h1m2 0h3m1 0h2m1 0h1m1 0h1m1 0h2m1 0h4m2 0h9m3 0h1m1 0h3m1 0h1M2 5.5h1m1 0h3m1 0h1m1 0h2m2 0h2m2 0h1m1 0h1m1 0h1m1 0h2m3 0h5m1 0h1m1 0h1m1 0h1m3 0h1m6 0h2m1 0h1m1 0h2m5 0h1m1 0h1m1 0h3m1 0h1M2 6.5h1m1 0h3m1 0h1m1 0h4m1 0h2m3 0h1m1 0h6m6 0h5m2 0h1m2 0h2m2 0h2m1 0h1m4 0h1m1 0h1m1 0h1m1 0h1m1 0h1m1 0h3m1 0h1M2 7.5h1m5 0h1m1 0h2m2 0h1m1 0h1m2 0h1m2 0h1m3 0h4m2 0h1m1 0h1m3 0h4m8 0h3m2 0h1m3 0h2m3 0h1m5 0h1M2 8.5h7m1 0h1m1 0h1m1 0h1m1 0h1m1 0h1m1 0h1m1 0h1m1 0h1m1 0h1m1 0h1m1 0h1m1 0h1m1 0h1m1 0h1m1 0h1m1 0h1m1 0h1m1 0h1m1 0h1m1 0h1m1 0h1m1 0h1m1 0h1m1 0h1m1 0h1m1 0h1m1 0h1m1 0h7M10 9.5h1m1 0h1m1 0h3m1 0h2m1 0h1m2 0h1m3 0h2m1 0h4m3 0h2m1 0h2m1 0h1m4 0h1m1 0h1m4 0h1m1 0h1m1 0h3M2 10.5h1m1 0h5m2 0h1m2 0h1m3 0h2m4 0h1m1 0h3m1 0h1m1 0h1m1 0h6m3 0h3m1 0h1m2 0h2m1 0h1m1 0h3m1 0h3m2 0h5M2 11.5h2m1 0h1m1 0h1m2 0h1m3 0h1m2 0h4m1 0h3m1 0h1m2 0h1m5 0h2m4 0h2m1 0h3m2 0h2m5 0h1m1 0h1m2 0h2m4 0h2m1 0h1M2 12.5h1m2 0h4m2 0h3m2 0h1m2 0h2m1 0h1m2 0h1m1 0h2m1 0h1m1 0h1m1 0h2m2 0h4m1 0h2m2 0h7m5 0h6m2 0h3M2 13.5h1m1 0h3m2 0h5m1 0h1m1 0h1m2 0h1m2 0h1m2 0h4m1 0h3m3 0h3m2 0h2m1 0h3m3 0h4m1 0h1m1 0h1m1 0h4m2 0h3M2 14.5h1m1 0h2m2 0h1m2 0h2m3 0h1m1 0h1m4 0h1m1 0h2m1 0h1m1 0h1m1 0h1m3 0h1m1 0h2m1 0h1m1 0h1m4 0h3m1 0h1m2 0h3m1 0h2m2 0h1m1 0h1m2 0h2M4 15.5h1m2 0h1m1 0h1m2 0h4m1 0h2m3 0h1m1 0h1m1 0h2m1 0h1m5 0h1m3 0h1m3 0h3m1 0h1m1 0h3m2 0h5m1 0h3m2 0h3m2 0h1M4 16.5h3m1 0h1m2 0h6m2 0h3m2 0h3m1 0h3m1 0h1m1 0h1m2 0h2m4 0h3m1 0h2m3 0h2m3 0h1m1 0h1m1 0h5m3 0h1M3 17.5h1m3 0h1m1 0h2m1 0h4m2 0h1m4 0h1m2 0h1m2 0h1m2 0h2m1 0h1m1 0h2m3 0h1m1 0h1m1 0h1m1 0h1m3 0h3m1 0h2m1 0h4m3 0h4M3 18.5h2m2 0h5m3 0h2m1 0h2m1 0h1m1 0h1m2 0h3m1 0h3m2 0h5m1 0h1m2 0h1m3 0h4m1 0h1m2 0h1m2 0h2m1 0h1m1 0h2m3 0h1M3 19.5h2m4 0h3m6 0h2m1 0h1m1 0h1m2 0h1m4 0h1m3 0h1m1 0h1m3 0h1m1 0h4m2 0h1m1 0h1m3 0h3m1 0h1m1 0h3m1 0h4m1 0h1M2 20.5h2m3 0h2m5 0h1m2 0h4m1 0h4m3 0h1m2 0h8m7 0h2m1 0h1m1 0h1m2 0h1m3 0h2m1 0h1m1 0h2m3 0h1M3 21.5h1m1 0h3m1 0h2m2 0h1m2 0h1m6 0h1m1 0h2m1 0h2m5 0h1m1 0h5m1 0h5m3 0h1m1 0h3m1 0h3m2 0h2m1 0h5M2 22.5h1m2 0h1m2 0h1m2 0h1m1 0h6m1 0h4m1 0h1m3 0h1m2 0h2m2 0h1m1 0h3m1 0h4m3 0h3m13 0h1m4 0h1M2 23.5h1m1 0h2m1 0h1m1 0h2m1 0h1m4 0h2m2 0h1m1 0h1m1 0h1m2 0h1m2 0h1m1 0h1m1 0h1m1 0h1m1 0h1m1 0h5m7 0h1m1 0h1m2 0h1m2 0h3m3 0h1m2 0h1M2 24.5h2m1 0h2m1 0h1m1 0h3m1 0h1m2 0h2m1 0h1m1 0h3m1 0h1m1 0h2m2 0h3m1 0h5m1 0h1m1 0h1m1 0h1m1 0h2m1 0h3m2 0h1m3 0h1m1 0h3m4 0h1M4 25.5h1m2 0h1m2 0h2m1 0h1m1 0h1m1 0h3m3 0h2m1 0h2m1 0h1m1 0h1m1 0h1m3 0h2m2 0h2m1 0h4m1 0h1m1 0h1m1 0h2m1 0h1m1 0h1m3 0h2m1 0h5M4 26.5h1m2 0h2m1 0h1m2 0h4m1 0h1m1 0h5m1 0h2m2 0h4m2 0h3m1 0h2m1 0h1m1 0h1m2 0h4m3 0h3m1 0h1m1 0h3m1 0h1M2 27.5h2m6 0h4m1 0h1m2 0h1m3 0h4m11 0h1m4 0h5m4 0h1m4 0h1m4 0h2m5 0h1M5 28.5h2m1 0h2m1 0h1m3 0h2m1 0h1m2 0h1m1 0h1m1 0h3m3 0h2m1 0h2m2 0h4m2 0h5m1 0h5m2 0h1m1 0h2m1 0h4m1 0h3M2 29.5h1m2 0h1m3 0h1m2 0h2m2 0h3m2 0h1m1 0h1m1 0h1m1 0h2m1 0h1m1 0h2m3 0h2m1 0h3m1 0h1m2 0h1m1 0h1m1 0h5m2 0h2m2 0h2m1 0h2m1 0h2M4 30.5h2m1 0h2m8 0h2m1 0h3m1 0h3m1 0h1m1 0h5m1 0h4m1 0h1m1 0h5m1 0h2m1 0h2m1 0h1m1 0h1m3 0h1m1 0h1m1 0h1m1 0h1m1 0h1M2 31.5h1m1 0h2m8 0h1m1 0h1m6 0h1m1 0h1m1 0h1m1 0h1m3 0h2m1 0h1m2 0h1m4 0h1m1 0h1m4 0h2m3 0h4m2 0h1m4 0h1M2 32.5h1m4 0h2m1 0h1m1 0h1m2 0h2m2 0h3m4 0h3m1 0h2m2 0h2m1 0h2m1 0h3m2 0h3m2 0h1m6 0h5m1 0h3M6 33.5h1m5 0h1m2 0h5m2 0h2m1 0h1m2 0h2m3 0h1m4 0h1m2 0h7m2 0h5m1 0h1m1 0h1m3 0h3m1 0h3M2 34.5h9m1 0h1m2 0h1m2 0h3m1 0h1m4 0h1m1 0h1m1 0h1m2 0h6m1 0h1m1 0h2m3 0h1m2 0h2m3 0h1m5 0h5M2 35.5h2m1 0h2m3 0h1m1 0h1m1 0h1m2 0h3m3 0h1m1 0h1m1 0h2m1 0h1m1 0h1m1 0h1m3 0h2m4 0h2m1 0h1m1 0h2m2 0h6m3 0h1m3 0h2M5 36.5h2m1 0h1m1 0h2m4 0h3m2 0h1m2 0h3m2 0h3m1 0h2m1 0h1m1 0h2m1 0h1m1 0h1m3 0h3m1 0h1m2 0h1m2 0h2m1 0h1m1 0h1m1 0h1m1 0h2m1 0h1M4 37.5h3m3 0h2m2 0h3m1 0h3m1 0h1m2 0h3m2 0h1m1 0h1m1 0h1m3 0h2m1 0h1m2 0h3m1 0h1m1 0h1m3 0h2m3 0h1m2 0h1m3 0h3M3 38.5h1m2 0h8m1 0h1m2 0h2m1 0h1m4 0h2m2 0h1m1 0h9m2 0h2m2 0h3m3 0h1m1 0h3m2 0h1m1 0h6M2 39.5h3m1 0h2m1 0h1m1 0h1m2 0h1m5 0h1m3 0h2m1 0h3m3 0h1m1 0h5m1 0h1m1 0h3m2 0h1m2 0h1m1 0h4m4 0h1m2 0h1m2 0h2m1 0h1M2 40.5h4m2 0h1m3 0h1m1 0h2m3 0h1m4 0h5m3 0h1m4 0h1m2 0h2m1 0h3m1 0h1m1 0h1m2 0h2m6 0h3m2 0h1m1 0h3M3 41.5h1m2 0h2m5 0h5m1 0h2m3 0h1m3 0h1m2 0h1m1 0h1m3 0h2m3 0h3m1 0h1m1 0h1m1 0h2m1 0h2m1 0h3m2 0h1m2 0h1m3 0h2M2 42.5h1m2 0h2m1 0h1m1 0h2m1 0h6m1 0h1m4 0h1m4 0h3m2 0h1m1 0h2m2 0h1m1 0h3m2 0h3m1 0h1m9 0h1m3 0h1M3 43.5h2m1 0h2m1 0h1m4 0h3m2 0h5m1 0h1m2 0h1m5 0h1m1 0h4m3 0h2m2 0h1m1 0h3m4 0h2m4 0h1m5 0h1m1 0h1M2 44.5h2m3 0h2m2 0h1m2 0h2m1 0h1m3 0h1m2 0h1m1 0h1m1 0h1m2 0h2m1 0h1m2 0h2m5 0h2m2 0h3m1 0h1m1 0h2m1 0h1m2 0h1m1 0h2m2 0h3M2 45.5h1m1 0h1m1 0h1m3 0h1m2 0h9m1 0h1m1 0h2m1 0h1m1 0h3m1 0h1m3 0h1m3 0h2m1 0h4m4 0h1m1 0h5m1 0h1m1 0h2m1 0h1m1 0h3M2 46.5h1m3 0h1m1 0h3m1 0h5m2 0h1m2 0h4m3 0h1m2 0h2m1 0h1m1 0h2m1 0h1m9 0h1m1 0h1m1 0h4m4 0h1m2 0h2M3 47.5h1m2 0h2m1 0h2m1 0h1m2 0h3m1 0h2m1 0h1m8 0h1m2 0h1m1 0h1m1 0h1m4 0h1m1 0h1m7 0h2m1 0h2m1 0h1m2 0h1m2 0h1m2 0h1m1 0h1M4 48.5h1m1 0h1m1 0h1m4 0h2m2 0h3m4 0h1m1 0h1m4 0h3m1 0h1m3 0h3m2 0h2m1 0h6m1 0h2m1 0h1m1 0h2m1 0h2m3 0h3M3 49.5h1m1 0h2m4 0h2m1 0h2m1 0h2m1 0h3m2 0h1m1 0h1m3 0h4m2 0h2m2 0h4m1 0h1m4 0h1m1 0h3m1 0h3m1 0h1m1 0h3m2 0h1M2 50.5h3m1 0h1m1 0h1m1 0h1m5 0h4m1 0h1m1 0h1m1 0h1m1 0h1m2 0h1m1 0h4m1 0h1m1 0h1m1 0h1m2 0h1m4 0h2m6 0h1m4 0h1m2 0h3M3 51.5h3m1 0h1m1 0h3m2 0h1m1 0h1m1 0h1m1 0h1m1 0h2m1 0h1m3 0h1m1 0h1m1 0h1m4 0h1m2 0h2m1 0h2m4 0h2m3 0h5m2 0h1m1 0h2m3 0h2M2 52.5h4m1 0h2m1 0h1m3 0h2m3 0h1m2 0h3m3 0h1m3 0h1m6 0h3m2 0h2m1 0h1m1 0h2m1 0h1m2 0h1m1 0h2m9 0h2M3 53.5h1m5 0h1m4 0h4m3 0h2m1 0h1m1 0h1m5 0h2m1 0h1m1 0h4m3 0h3m1 0h1m2 0h4m1 0h1m3 0h2m1 0h7M2 54.5h3m3 0h4m3 0h4m2 0h1m1 0h2m2 0h1m2 0h1m1 0h1m1 0h2m2 0h1m1 0h2m1 0h2m4 0h2m1 0h1m4 0h2m1 0h1m5 0h1M2 55.5h1m1 0h2m6 0h1m1 0h4m1 0h2m1 0h1m1 0h6m3 0h1m2 0h1m1 0h3m2 0h4m2 0h3m1 0h1m1 0h2m1 0h2m2 0h1m1 0h2m4 0h1M3 56.5h1m1 0h1m1 0h2m1 0h5m4 0h3m3 0h1m2 0h3m1 0h1m5 0h1m2 0h1m1 0h1m3 0h2m3 0h1m4 0h4m6 0h3M3 57.5h2m1 0h1m2 0h1m1 0h2m2 0h2m2 0h2m3 0h1m2 0h3m2 0h2m3 0h3m4 0h1m1 0h2m6 0h1m1 0h3m2 0h4m2 0h2m1 0h1M2 58.5h1m1 0h1m1 0h4m1 0h1m1 0h1m2 0h1m2 0h1m2 0h1m2 0h1m1 0h2m1 0h1m1 0h1m2 0h1m1 0h2m2 0h1m1 0h3m1 0h7m1 0h2m6 0h1m2 0h1m2 0h1M6 59.5h1m8 0h1m4 0h1m3 0h2m1 0h3m3 0h1m2 0h1m1 0h2m4 0h4m2 0h2m1 0h2m1 0h2m5 0h1m1 0h1m4 0h1M2 60.5h1m1 0h1m1 0h3m1 0h1m2 0h1m1 0h1m1 0h1m1 0h4m3 0h1m2 0h2m1 0h1m1 0h2m4 0h2m1 0h1m3 0h2m1 0h1m2 0h1m1 0h3m1 0h2m7 0h2M2 61.5h1m6 0h1m1 0h2m2 0h1m1 0h1m1 0h3m7 0h1m1 0h2m2 0h1m1 0h2m3 0h1m1 0h1m2 0h1m1 0h1m3 0h3m1 0h2m2 0h2m1 0h1m2 0h2M2 62.5h1m2 0h2m1 0h3m1 0h8m1 0h1m2 0h3m2 0h4m1 0h5m2 0h1m1 0h3m3 0h2m6 0h1m4 0h6M10 63.5h1m2 0h13m2 0h1m5 0h1m3 0h2m2 0h1m1 0h1m1 0h1m2 0h2m2 0h1m1 0h5m2 0h1m3 0h1m1 0h1m1 0h1M2 64.5h7m2 0h1m3 0h1m1 0h5m1 0h2m1 0h3m3 0h1m1 0h1m1 0h1m1 0h1m1 0h2m4 0h5m1 0h2m5 0h4m1 0h1m1 0h3M2 65.5h1m5 0h1m1 0h1m1 0h2m1 0h1m3 0h2m1 0h2m1 0h1m3 0h1m1 0h4m3 0h8m1 0h1m1 0h1m4 0h3m1 0h1m3 0h1m3 0h1m1 0h3M2 66.5h1m1 0h3m1 0h1m1 0h1m2 0h1m1 0h2m1 0h6m1 0h1m3 0h1m2 0h1m1 0h7m2 0h2m4 0h3m3 0h3m4 0h5M2 67.5h1m1 0h3m1 0h1m1 0h1m1 0h1m2 0h1m3 0h1m1 0h2m5 0h1m4 0h2m3 0h1m2 0h2m1 0h2m1 0h1m1 0h2m5 0h4m1 0h1m3 0h2M2 68.5h1m1 0h3m1 0h1m1 0h1m3 0h4m2 0h3m2 0h1m2 0h1m3 0h1m2 0h2m3 0h1m2 0h1m3 0h2m1 0h2m3 0h1m4 0h1m1 0h1m5 0h1M2 69.5h1m5 0h1m5 0h1m1 0h2m1 0h1m2 0h1m5 0h1m2 0h2m1 0h2m5 0h1m2 0h1m5 0h1m2 0h2m1 0h1m1 0h2m3 0h1m1 0h4M2 70.5h7m1 0h1m6 0h4m3 0h3m5 0h2m2 0h3m4 0h1m1 0h1m4 0h1m4 0h3m1 0h2m1 0h4m3 0h1"/></svg>
